<?xml version="1.0" encoding="iso-8859-1"?>
<!-- Generator: Adobe Illustrator 19.0.0, SVG Export Plug-In . SVG Version: 6.00 Build 0)  -->
<svg version="1.1" id="Capa_1" xmlns="http://www.w3.org/2000/svg" xmlns:xlink="http://www.w3.org/1999/xlink" x="0px" y="0px"
	 viewBox="0 0 400 400" style="enable-background:new 0 0 400 400;" xml:space="preserve">
<g>
	<path d="M400,172.255c0-10.4-4.4-20-11.2-26.8c-7.2-7.2-16.8-11.2-27.2-11.2H320h-58c0.8-2,2-4,2.8-6c2.4-6,4.8-12,6.8-18
		s3.6-12,4.8-18.4c1.2-6,2-12.4,2.8-19.2c0.8-10.8-2.4-20.8-8.8-28.4c-6-7.2-14.8-12.4-24.8-13.6c-0.8,0-1.6-0.4-2.4-0.4
		c-10.4-0.8-20,2.8-27.2,8.8s-12.4,14.8-13.6,24.8c0,0.8-0.4,1.6-0.4,2.4c-0.4,3.2-0.8,6.4-1.6,9.6c-0.8,3.6-1.6,7.2-2.8,10.8
		c-1.2,3.2-2.4,6.8-3.6,10c-1.6,3.6-3.2,6.8-4.8,10c-3.6,6-7.2,11.6-11.6,16.8c-4,4.8-8.8,9.2-13.6,13.2c-1.6,0.8-2.8,1.6-4,2.4
		c-4.4-3.6-9.6-5.6-15.6-5.6H25.2c-6.8,0-13.2,2.8-17.6,7.2c-4.8,5.2-7.6,11.6-7.6,18.4v186c0,6.8,2.8,13.2,7.2,17.6
		c4.4,4.4,10.8,7.2,17.6,7.2h118.4c6,0,11.2-2,15.6-5.6c5.2,3.6,11.6,5.6,18.4,5.6h5.2H320h16c10,0,19.6-4,26.4-10.4
		c0.4-0.4,0.4-0.4,0.8-0.8c6.8-6.8,11.2-16.8,11.2-27.2c0-7.2-2-14-5.6-20c2.8-1.6,5.2-3.6,7.6-6c6.8-6.8,11.2-16.8,11.2-27.2
		s-4-19.6-10.8-26.4c6.4-6.8,10.8-16.4,10.8-26.4c0-7.6-2-14.4-6-20.4c2.4-1.6,4.8-3.6,7.2-5.6
		C395.6,192.655,400,182.655,400,172.255z M144.8,345.055v0.4c0,0,0,0-0.4,0.4c-0.4,0.4-0.4,0.4-0.8,0.4H25.2c-0.4,0-0.8,0-0.8-0.4
		c-0.4-0.4-0.4-0.4-0.4-0.8v-186c0-0.4,0-0.8,0.4-0.8c0.4-0.4,0.4-0.4,0.8-0.4h118.4c0.4,0,0.8,0,0.8,0.4c0,0.4,0.4,0.4,0.4,1.2
		c-0.8,2.8-0.8,5.2-0.8,8v5.2v53.2v53.2v53.2v5.2C144,340.255,144.4,342.655,144.8,345.055z M371.6,183.055
		c-2.8,2.8-6.4,4.4-10.4,4.4h-12.4c-6.4,0-12,5.2-12,12c0,6.8,5.2,12,12,12c4,0,7.6,1.6,10.4,4.4s4.4,6.4,4.4,10.4
		s-1.6,7.6-4.4,10.4s-6.4,4.4-10.4,4.4c-6.4,0-12,5.2-12,12s5.2,12,12,12c4,0,7.6,1.6,10.4,4.4s4.4,6.4,4.4,10.4s-1.6,7.6-4.4,10.4
		s-6.4,4.4-10.4,4.4h-7.6c-6.8,0-12,5.2-12,12v0.8c0,6,4.4,10.8,10,11.6c3.2,0.8,6,2.4,8,5.2c2,2.4,3.2,5.6,3.2,9.2
		c0,4-1.6,7.6-4.4,10.4l-0.4,0.4c-2.4,2.4-6,3.6-10,3.6h-16H182.4h-5.2c-2.8,0-4.8-1.2-6.8-2.8l-0.4-0.4c-0.4-0.8-1.2-1.6-1.6-2.4
		v-178.8c0.4-0.8,0.8-1.6,1.2-2c0.4-0.8,1.2-1.2,1.6-1.6c0.8-0.4,1.2-0.8,2-1.2c1.2-0.4,2.4-1.2,3.2-2c6.4-5.2,12.4-10.8,18-17.2
		c5.6-6.4,10.4-13.2,14.4-20.8c2.4-4,4.4-8,6-12c1.6-4,3.2-8,4.8-12.4c1.2-4.4,2.4-8.8,3.2-13.2c0.8-4.4,1.6-8.8,2-13.2
		c0.4-4,2.4-7.6,5.2-10c2.8-2.4,6.8-3.6,10.8-3.2c4,0.4,7.6,2.4,10,5.2c2.4,2.8,3.6,6.8,3.2,10.8c-0.4,5.6-1.2,10.8-2.4,16.4
		c-1.2,5.6-2.4,10.8-4,16c-1.6,5.2-3.6,10.4-5.6,15.6c-2,5.2-4.4,10-7.2,14.8c-0.8,1.2-1.2,2.4-2,3.2c-0.8,1.2-1.2,2-2,3.2
		c-3.6,5.6-1.6,12.8,4,16.4c2,1.2,4,2,6.4,2H320h41.2c4,0,7.6,1.6,10.4,4.4c2.8,2,4.4,6,4.4,10S374.4,180.255,371.6,183.055z"/>
</g>
<g>
</g>
<g>
</g>
<g>
</g>
<g>
</g>
<g>
</g>
<g>
</g>
<g>
</g>
<g>
</g>
<g>
</g>
<g>
</g>
<g>
</g>
<g>
</g>
<g>
</g>
<g>
</g>
<g>
</g>
</svg>
