<?xml version="1.0" encoding="iso-8859-1"?>
<!-- Generator: Adobe Illustrator 19.0.0, SVG Export Plug-In . SVG Version: 6.00 Build 0)  -->
<svg version="1.1" id="Capa_1" xmlns="http://www.w3.org/2000/svg" xmlns:xlink="http://www.w3.org/1999/xlink" x="0px" y="0px"
	 viewBox="0 0 450.8 450.8" style="enable-background:new 0 0 450.8 450.8;" xml:space="preserve">
<g>
	<g>
		<path style="fill:#231F20;" d="M303.6,253.2c6.4-48,6.8-106.4-12.4-161.6c0-1.2-0.4-2.4-1.2-3.2C278.8,57.6,261.6,28,235.6,2
			c-1.2-1.2-3.2-2-4.8-2h-8.4c-2,0-3.6,0.8-4.8,2c-26,26-43.2,55.6-54.4,86.4c-0.4,0.8-0.8,1.6-0.8,2.8
			c-19.2,54.4-18.8,112.4-12.4,160c-0.4,0-0.4,0-0.8,0.4c-65.2,37.6-68,97.6-68,100c0,2,0.8,3.6,2,4.8s3.2,2,4.8,2h93.2h88h3.6h90
			c2,0,3.6-0.8,4.8-2s2-3.2,2-4.8C369.2,349.2,366.4,290.8,303.6,253.2z M233.6,20c18.4,20,31.6,42.4,41.2,65.6h-41.2V20z M220,20
			v65.6h-40.8C188.4,62.4,202,40,220,20z M95.6,345.2c2.8-15.2,13.6-52.8,56.4-79.2c6,36.4,14.8,65.2,19.6,79.2H95.6z M268,345.2
			h-31.2v-102c0-3.6-3.2-6.8-6.8-6.8s-6.8,3.2-6.8,6.8v102H186c-8.4-23.6-46.8-141.2-12-246h105.6C314.8,204,276.4,321.6,268,345.2z
			 M282.4,345.2c4.8-13.6,13.2-41.6,19.2-77.2c40.8,26.4,50.8,62.4,53.6,77.2C355.2,345.2,282.4,345.2,282.4,345.2z"/>
		<path style="fill:#231F20;" d="M269.2,366h-78.4c-3.6,0-6.8,3.2-6.8,6.8c0,55.2,41.2,76.4,42.8,77.2c0.8,0.4,2,0.8,3.2,0.8
			s2-0.4,3.2-0.8c1.6-0.8,42.8-22.4,42.8-77.2C276,369.2,272.8,366,269.2,366z M230,436c-8-5.2-29.6-22.4-32-56.4h64
			C259.6,414,238.4,430.8,230,436z"/>
	</g>
</g>
<g>
</g>
<g>
</g>
<g>
</g>
<g>
</g>
<g>
</g>
<g>
</g>
<g>
</g>
<g>
</g>
<g>
</g>
<g>
</g>
<g>
</g>
<g>
</g>
<g>
</g>
<g>
</g>
<g>
</g>
</svg>
