<?xml version="1.0" encoding="iso-8859-1"?>
<!-- Generator: Adobe Illustrator 19.0.0, SVG Export Plug-In . SVG Version: 6.00 Build 0)  -->
<svg version="1.1" id="Capa_1" xmlns="http://www.w3.org/2000/svg" xmlns:xlink="http://www.w3.org/1999/xlink" x="0px" y="0px"
	 viewBox="0 0 360.8 360.8" style="enable-background:new 0 0 360.8 360.8;" xml:space="preserve">
<g>
	<g>
		<g>
			<path style="fill:#231F20;" d="M180.4,0C80.8,0,0,80.8,0,180.4s80.8,180.4,180.4,180.4S360.8,280,360.8,180.4S280,0,180.4,0z
				 M180.4,347.2c-92,0-166.8-74.8-166.8-166.8S88.4,13.6,180.4,13.6s166.8,74.8,166.8,166.8S272.4,347.2,180.4,347.2z"/>
			<path style="fill:#231F20;" d="M180.4,46.4c-74,0-134,60-134,134s60,134,134,134s134-60,134-134S254.4,46.4,180.4,46.4z
				 M180.4,300.8C114,300.8,60,246.8,60,180.4S114,60,180.4,60s120.4,54,120.4,120.4S246.8,300.8,180.4,300.8z"/>
			<path style="fill:#231F20;" d="M187.2,155.2V80c0-3.6-3.2-6.8-6.8-6.8c-3.6,0-6.8,3.2-6.8,6.8v75.6
				c-11.2,3.2-19.2,13.2-19.2,25.2c0,4.8,1.2,9.2,3.6,12.8l-34,34c-2.8,2.8-2.8,6.8,0,9.6c1.2,1.2,3.2,2,4.8,2c1.6,0,3.6-0.8,4.8-2
				l34-34c4,2.4,8.4,3.6,13.2,3.6c14.4,0,26-11.6,26-26C206.4,168.4,198.4,158.4,187.2,155.2z M180.4,192.8
				c-6.8,0-12.4-5.6-12.4-12.4s5.6-12.4,12.4-12.4s12.4,5.6,12.4,12.4S187.2,192.8,180.4,192.8z"/>
		</g>
	</g>
</g>
<g>
</g>
<g>
</g>
<g>
</g>
<g>
</g>
<g>
</g>
<g>
</g>
<g>
</g>
<g>
</g>
<g>
</g>
<g>
</g>
<g>
</g>
<g>
</g>
<g>
</g>
<g>
</g>
<g>
</g>
</svg>
