<?xml version="1.0" encoding="iso-8859-1"?>
<!-- Generator: Adobe Illustrator 19.0.0, SVG Export Plug-In . SVG Version: 6.00 Build 0)  -->
<svg version="1.1" id="Capa_1" xmlns="http://www.w3.org/2000/svg" xmlns:xlink="http://www.w3.org/1999/xlink" x="0px" y="0px"
	 viewBox="0 0 418.749 418.749" style="enable-background:new 0 0 418.749 418.749;" xml:space="preserve">
<g>
	<g>
		<path d="M417.968,213.554c-2.918-14.024-13.692-25.089-27.633-28.38c8.931-10.772,13.95-24.251,14.24-38.24
			c0-56-85.76-100.56-195.2-100.56s-195.2,43.84-195.2,100.24c0.217,14.1,5.241,27.703,14.24,38.56
			c-19.823,4.68-32.1,24.543-27.42,44.367c3.291,13.941,14.357,24.715,28.38,27.633l24,108.88c0.805,3.753,4.162,6.405,8,6.32
			h296.32c3.838,0.085,7.195-2.567,8-6.32l23.68-108.88C409.316,253.024,422.118,233.495,417.968,213.554z M209.375,62.054
			c97.12,0,179.2,38.72,179.2,84.56c-0.901,14.589-7.862,28.135-19.2,37.36h-320c-11.338-9.225-18.299-22.771-19.2-37.36
			C30.175,100.774,112.255,62.054,209.375,62.054z M351.295,356.294h-34.56l11.04-47.44c1.016-4.308-1.652-8.624-5.96-9.64
			s-8.624,1.652-9.64,5.96l-11.84,51.04h-42.96l4.24-57.04c0.322-4.393-2.968-8.219-7.36-8.56c-4.393-0.322-8.219,2.968-8.56,7.36
			l-4.32,58.32h-64l-4.32-58.24c-0.331-4.418-4.182-7.731-8.6-7.4s-7.731,4.182-7.4,8.6l4.32,57.04h-43.2l-11.6-51.12
			c-0.994-4.308-5.292-6.994-9.6-6c-4.308,0.994-6.994,5.292-6,9.6l11.04,47.44h-34.56l-21.84-99.76
			c7.61-2.05,14.365-6.479,19.28-12.64c12.667,15.95,35.866,18.611,51.816,5.944c2.201-1.748,4.195-3.742,5.944-5.944
			c12.667,15.95,35.866,18.611,51.816,5.944c2.201-1.748,4.195-3.742,5.944-5.944c12.667,15.95,35.867,18.611,51.816,5.944
			c2.201-1.748,4.195-3.742,5.944-5.944c12.667,15.95,35.866,18.611,51.816,5.944c2.201-1.748,4.195-3.742,5.944-5.944
			c12.667,15.95,35.866,18.611,51.816,5.944c2.201-1.748,4.195-3.742,5.944-5.944c4.915,6.161,11.67,10.59,19.28,12.64
			L351.295,356.294z M382.776,241.732c-11.495-0.065-20.798-9.378-20.841-20.878c0-4.418-3.582-8-8-8s-8,3.582-8,8
			c0,11.532-9.348,20.88-20.88,20.88c-11.532,0-20.88-9.348-20.88-20.88c0-4.418-3.582-8-8-8s-8,3.582-8,8
			c0,11.532-9.348,20.88-20.88,20.88c-11.532,0-20.88-9.348-20.88-20.88c0-4.418-3.582-8-8-8s-8,3.582-8,8
			c0.005,11.532-9.339,20.884-20.871,20.889c-11.532,0.005-20.884-9.339-20.889-20.871c0-0.006,0-0.012,0-0.018c0-4.418-3.582-8-8-8
			s-8,3.582-8,8c0.005,11.532-9.339,20.884-20.871,20.889s-20.884-9.339-20.889-20.871c0-0.006,0-0.012,0-0.018c0-4.418-3.582-8-8-8
			s-8,3.582-8,8c0.005,11.532-9.339,20.884-20.871,20.889c-11.532,0.005-20.884-9.339-20.889-20.871c0-0.006,0-0.012,0-0.018
			c0-4.418-3.582-8-8-8s-8,3.582-8,8c0,11.532-9.348,20.88-20.88,20.88c-11.532,0-20.88-9.348-20.88-20.88
			c0-11.532,9.348-20.88,20.88-20.88h346.48c11.532,0,20.88,9.348,20.88,20.88C403.615,232.371,394.289,241.709,382.776,241.732z"/>
	</g>
</g>
<g>
	<g>
		<path d="M102.09,131.569c-0.493-6.188-5.407-11.102-11.595-11.595c-6.959,0.555-12.15,6.646-11.595,13.605
			c0.493,6.188,5.407,11.102,11.595,11.595C97.454,144.619,102.645,138.528,102.09,131.569z"/>
	</g>
</g>
<g>
	<g>
		<path d="M200.81,154.609c-0.493-6.188-5.407-11.102-11.595-11.595c-6.959,0.555-12.15,6.646-11.595,13.605
			c0.493,6.188,5.407,11.102,11.595,11.595C196.174,167.659,201.365,161.568,200.81,154.609z"/>
	</g>
</g>
<g>
	<g>
		<path d="M204.33,88.769c-0.493-6.188-5.407-11.102-11.595-11.595c-6.959,0.555-12.15,6.646-11.595,13.605
			c0.493,6.188,5.407,11.102,11.595,11.595C199.694,101.819,204.885,95.728,204.33,88.769z"/>
	</g>
</g>
<g>
	<g>
		<path d="M299.61,113.969c-0.493-6.188-5.407-11.102-11.595-11.595c-6.959,0.555-12.15,6.646-11.595,13.605
			c0.493,6.188,5.407,11.102,11.595,11.595C294.974,127.019,300.165,120.928,299.61,113.969z"/>
	</g>
</g>
<g>
	<g>
		<path d="M329.69,157.409c-0.493-6.188-5.407-11.102-11.595-11.595c-6.959,0.555-12.15,6.646-11.595,13.605
			c0.493,6.188,5.407,11.102,11.595,11.595C325.054,170.459,330.245,164.368,329.69,157.409z"/>
	</g>
</g>
<g>
</g>
<g>
</g>
<g>
</g>
<g>
</g>
<g>
</g>
<g>
</g>
<g>
</g>
<g>
</g>
<g>
</g>
<g>
</g>
<g>
</g>
<g>
</g>
<g>
</g>
<g>
</g>
<g>
</g>
</svg>
