<?xml version="1.0" encoding="iso-8859-1"?>
<!-- Generator: Adobe Illustrator 19.0.0, SVG Export Plug-In . SVG Version: 6.00 Build 0)  -->
<svg version="1.1" id="Capa_1" xmlns="http://www.w3.org/2000/svg" xmlns:xlink="http://www.w3.org/1999/xlink" x="0px" y="0px"
	 viewBox="0 0 454.88 454.88" style="enable-background:new 0 0 454.88 454.88;" xml:space="preserve">
<g>
	<g>
		<path d="M241.28,131.44h-13.84c-10.48,0-20.88,0-31.04,1.04C87.12,139.44,0,181.76,0,231.44c0,92,105.44,92,227.44,92
			s227.44,0,227.44-92C454.88,179.44,358.4,134.8,241.28,131.44z M334.24,160.16V160c0.287,12.456,1.571,24.869,3.84,37.12
			c-13.418-11.033-23.179-25.871-28-42.56C318.48,156.32,326.48,158.16,334.24,160.16z M227.44,147.44h5.76
			c0.12,15.531,1.538,31.025,4.24,46.32c-13.12-10.48-28.8-26.64-32-45.84C212.533,147.6,219.867,147.44,227.44,147.44z
			 M130.32,157.76c0.651,14.007,2.389,27.942,5.2,41.68c-11.564-9.534-19.938-22.374-24-36.8
			C117.493,160.88,123.76,159.253,130.32,157.76z M227.44,307.44c-131.2,0-211.6-3.44-211.6-76c0-22.56,31.04-47.28,80-64
			c10.8,40,49.76,58.24,51.52,59.04c4.09,1.672,8.76-0.287,10.433-4.376c0.967-2.364,0.747-5.048-0.593-7.224
			c-8-11.76-10.8-43.04-11.6-60.32c14.294-2.646,28.712-4.568,43.2-5.76c6.48,42.48,57.28,70.4,59.6,72
			c3.247,3.049,8.351,2.887,11.4-0.36c3.049-3.247,2.887-8.351-0.36-11.4c-8-11.52-10-43.12-10.4-61.6
			c15.44,0.72,30.32,2.16,44.48,4.32c5.2,43.28,54.4,72.72,56.56,74.08c3.885,2.104,8.74,0.661,10.845-3.224
			c1.357-2.505,1.279-5.543-0.205-7.976c-6.96-10.56-9.6-34.4-10.4-50.16c54.08,16.72,88.64,42.88,88.64,66.72
			C439.04,304,358.64,307.44,227.44,307.44z"/>
	</g>
</g>
<g>
</g>
<g>
</g>
<g>
</g>
<g>
</g>
<g>
</g>
<g>
</g>
<g>
</g>
<g>
</g>
<g>
</g>
<g>
</g>
<g>
</g>
<g>
</g>
<g>
</g>
<g>
</g>
<g>
</g>
</svg>
