<?xml version="1.0" encoding="iso-8859-1"?>
<!-- Generator: Adobe Illustrator 19.0.0, SVG Export Plug-In . SVG Version: 6.00 Build 0)  -->
<svg version="1.1" id="Capa_1" xmlns="http://www.w3.org/2000/svg" xmlns:xlink="http://www.w3.org/1999/xlink" x="0px" y="0px"
	 viewBox="0 0 321.6 321.6" style="enable-background:new 0 0 321.6 321.6;" xml:space="preserve">
<g>
	<g>
		<g>
			<path d="M278.791,283.2c-1.2-4.8-2-17.6-2.4-29.2c-2-50.8-5.6-151.6-86-170.4c0.8-1.2,1.2-2.4,1.2-3.6c0-3.2-2.4-6-6-6.4
				c13.2-12.8,25.2-33.6,30.4-60.4c0.8-3.2,0-6-2-8.4c-3.6-4.4-10.4-4.8-16-4.8c-8.4,0-20,1.6-32.4,3.2c-13.6,2-28,3.6-39.2,3.6
				c-6,0-10.4-0.4-13.6-1.6c-2-0.8-4-0.4-5.6,0.8c-1.6,1.2-2.8,3.2-2.8,5.2c0,22.4,14,47.2,29.6,62.4c-2.8,0.8-4.8,3.2-4.8,6
				c0,1.6,0.4,2.8,1.6,4c-79.6,20-83.2,119.6-85.2,170.4c-0.4,11.6-0.8,24.8-2.4,29.2c-8,1.2-14,8-14,16.4v5.2
				c0,9.2,7.6,16.8,16.8,16.8h229.6c9.2,0,16.8-7.6,16.8-16.8v-5.2C292.791,291.6,286.791,284.4,278.791,283.2z M118.391,19.2
				c12.4,1.2,31.6-1.2,49.2-3.6c12-1.6,22.8-3.2,30.8-3.2c2.4,0,4,0,5.2,0.4c-7.6,34-26.4,54.8-38.8,60.4h-9.2
				C142.391,67.2,121.991,42.8,118.391,19.2z M279.991,305.2c0,2-1.6,4-4,4h-229.6c-2,0-4-1.6-4-4V300c0-2,1.6-4,4-4
				c11.2,0,11.6-14,12.4-41.6c2-56.4,6-161.6,102.4-161.6s100.4,105.2,102.4,161.6c1.2,27.6,1.6,41.6,12.4,41.6c2,0,4,1.6,4,4V305.2
				z"/>
			<path d="M183.991,214.8c-0.8-1.2-1.2-2.4-2-3.6s-2-2-2.8-3.2c-1.2-1.2-2.4-2-3.6-2.8s-2.4-1.6-4-2.4c-1.6-0.8-2.8-1.6-4.4-2
				c-1.6-0.8-3.2-1.2-4.4-2c-0.8-0.4-1.6-0.4-2.4-0.8c-0.8-0.4-1.6-0.8-2.4-1.2c-0.8-0.4-1.2-0.8-2-1.2c-0.4-0.4-1.2-1.2-1.6-1.6
				c-0.4-0.8-0.8-1.2-1.2-2c-0.4-0.8-0.4-1.6-0.8-2.4c0-0.8,0-1.6,0-2.4s0.4-1.6,0.8-2.4c0.4-0.8,0.8-1.6,1.2-2
				c0.4-0.8,1.2-1.2,2-1.6c0.8-0.4,1.6-0.8,2.4-1.2c0.8-0.4,2-0.4,2.8-0.4s1.2,0,1.6,0c0.4,0,1.2,0,2,0s2,0,2.8,0.4
				c0.8,0,2,0.4,2.8,0.4s1.6,0.4,2,0.4c0.8,0.4,1.6,0.4,2,0.8l2.8,0.8l0.4-3.2l1.2-8.8l0.4-2l-2-0.8c-0.8-0.4-1.6-0.4-2-0.4
				c-0.4,0-1.2-0.4-2-0.4c-0.8-0.4-1.6-0.4-2.4-0.4s-2-0.4-2.8-0.4h-0.8v-8v-2.4h-2.4h-7.6h-2.4v2.4v8.4l-0.8,0.4
				c-1.6,0.4-3.2,1.2-4.8,2c-1.6,0.8-2.8,1.6-4,2.8c-1.2,1.2-2.4,2.4-3.2,3.6s-1.6,2.8-2.4,4.4c-0.8,1.6-1.2,3.2-1.6,4.8
				c-0.4,1.6-0.4,3.6-0.4,5.6c0,1.6,0,2.8,0.4,4.4c0.4,1.6,0.8,2.8,1.6,4.4c0.8,1.2,1.6,2.4,2.4,3.6s2,2,2.8,3.2
				c1.2,0.8,2.4,2,3.6,2.8c1.2,0.8,2.8,1.6,4,2.4c1.6,0.8,3.2,1.6,4.4,2c1.6,0.8,3.2,1.2,4.8,2c0.8,0.4,1.6,0.4,2.4,0.8
				c0.8,0.4,1.6,0.8,2,1.2c0.8,0.4,1.2,0.8,2,1.2c0.4,0.4,1.2,1.2,1.6,1.6c0.4,0.8,0.8,1.2,1.2,2s0.4,1.6,0.4,2.4s0,1.6,0,2.4
				s-0.4,1.6-0.8,2.4c-0.4,0.8-0.8,1.2-1.6,2c-0.4,0.4-1.2,1.2-2,1.6c-0.8,0.4-1.6,0.8-2.4,0.8c-0.8,0.4-1.6,0.4-2.4,0.4s-1.2,0-2,0
				s-1.6,0-2,0c-0.8,0-2,0-2.8-0.4c-0.8,0-2-0.4-2.8-0.4c-1.2-0.4-2.4-0.4-3.6-0.8c-1.2-0.4-2.4-0.8-3.6-1.2c-0.4,0-0.8-0.4-1.6-0.8
				c-0.4-0.4-0.8-0.4-1.6-0.8l-3.2-1.6l-0.4,3.6l-1.2,9.6l-0.4,2l1.6,0.8c1.2,0.4,2.4,1.2,3.6,1.6c1.2,0.4,2.4,0.8,4,1.2
				c1.2,0.4,2.8,0.8,4,1.2c1.6,0.4,2.8,0.4,4.4,0.8h0.8v8v2.4h2.4h7.2h2.4v-2.4V248h0.8c1.6-0.4,3.6-1.2,5.2-2
				c1.6-0.8,2.8-1.6,4.4-2.8c1.2-1.2,2.4-2.4,3.6-3.6c0.8-1.2,2-2.8,2.4-4.4c0.8-1.6,1.2-3.2,1.6-5.2c0.4-1.6,0.4-3.6,0.4-5.2
				c0-3.2-0.4-4.8-0.4-6C185.191,217.2,184.791,216,183.991,214.8z"/>
		</g>
	</g>
</g>
<g>
</g>
<g>
</g>
<g>
</g>
<g>
</g>
<g>
</g>
<g>
</g>
<g>
</g>
<g>
</g>
<g>
</g>
<g>
</g>
<g>
</g>
<g>
</g>
<g>
</g>
<g>
</g>
<g>
</g>
</svg>
