<?xml version="1.0" encoding="iso-8859-1"?>
<!-- Generator: Adobe Illustrator 19.0.0, SVG Export Plug-In . SVG Version: 6.00 Build 0)  -->
<svg version="1.1" id="Capa_1" xmlns="http://www.w3.org/2000/svg" xmlns:xlink="http://www.w3.org/1999/xlink" x="0px" y="0px"
	 viewBox="0 0 417.12 417.12" style="enable-background:new 0 0 417.12 417.12;" xml:space="preserve">
<g>
	<g>
		<path d="M409.12,200.741c-4.418,0-8,3.582-8,8c-0.06,106.525-86.464,192.831-192.988,192.772
			C101.607,401.453,15.3,315.049,15.36,208.524C15.42,102,101.824,15.693,208.348,15.753c51.36,0.029,100.587,20.54,136.772,56.988
			l-17.84-0.72c-4.418,0-8,3.582-8,8s3.582,8,8,8l36.72,1.52c1.013,0.003,2.018-0.188,2.96-0.56l0.88-0.56
			c1.381-0.859,2.534-2.039,3.36-3.44c0.034-0.426,0.034-0.854,0-1.28c0.183-0.492,0.317-1.001,0.4-1.52l3.2-36.72
			c0.376-4.418-2.902-8.304-7.32-8.68s-8.304,2.902-8.68,7.32l-1.6,18.16c-80.799-82.092-212.848-83.14-294.939-2.341
			s-83.14,212.848-2.341,294.939s212.848,83.14,294.939,2.341c39.786-39.159,62.212-92.635,62.261-148.459
			C417.12,204.323,413.538,200.741,409.12,200.741z"/>
	</g>
</g>
<g>
	<g>
		<path d="M200.4,256.341c-3.716-2.516-8.162-3.726-12.64-3.44h-56c1.564-2.442,3.302-4.768,5.2-6.96
			c6.727-7.402,14.088-14.201,22-20.32c10.667-8.747,18.293-15.147,22.88-19.2c5.252-4.976,9.752-10.689,13.36-16.96
			c4.377-7.234,6.649-15.545,6.56-24c-0.009-11.177-4.27-21.931-11.92-30.08c-3.725-3.941-8.181-7.12-13.12-9.36
			c-8.709-3.645-18.08-5.443-27.52-5.28c-8.048-0.163-16.055,1.194-23.6,4c-6.2,2.328-11.862,5.894-16.64,10.48
			c-4.219,4.117-7.565,9.042-9.84,14.48c-2.098,4.853-3.213,10.074-3.28,15.36c-0.192,3.547,1.081,7.018,3.52,9.6
			c2.345,2.352,5.56,3.626,8.88,3.52c3.499,0.231,6.903-1.19,9.2-3.84c2.503-3.303,4.424-7.01,5.68-10.96
			c0.939-3.008,2.144-5.926,3.6-8.72c4.562-7.738,12.94-12.416,21.92-12.24c4.114,0.077,8.149,1.147,11.76,3.12
			c3.625,1.82,6.693,4.583,8.88,8c2.194,3.673,3.329,7.882,3.28,12.16c-0.067,4.437-1.105,8.806-3.04,12.8
			c-2.129,4.829-5.019,9.286-8.56,13.2c-4.419,4.617-9.298,8.772-14.56,12.4c-5.616,4.247-10.96,8.843-16,13.76
			c-7.787,7.04-16.453,15.467-26,25.28c-2.638,2.966-4.773,6.344-6.32,10c-1.632,3.159-2.612,6.614-2.88,10.16
			c-0.018,3.939,1.605,7.707,4.48,10.4c3.393,3.096,7.896,4.684,12.48,4.4h78.4c3.842,0.312,7.641-0.993,10.48-3.6
			c2.291-2.379,3.53-5.579,3.44-8.88C204.691,262.051,203.173,258.598,200.4,256.341z"/>
	</g>
</g>
<g>
	<g>
		<path d="M333.76,222.901c-4.254-1.637-8.809-2.346-13.36-2.08h-4.56v-82.48c0-12.373-5.333-18.56-16-18.56
			c-3.185-0.052-6.261,1.155-8.56,3.36c-3.331,3.343-6.382,6.956-9.12,10.8l-56.48,75.6l-3.92,5.2c-1.067,1.44-2.107,2.907-3.12,4.4
			c-0.916,1.374-1.668,2.851-2.24,4.4c-0.475,1.308-0.718,2.689-0.72,4.08c-0.237,4.699,1.607,9.263,5.04,12.48
			c4.323,3.358,9.742,4.984,15.2,4.56h53.52v20.08c-0.273,4.252,1.006,8.459,3.6,11.84c5.276,5.346,13.887,5.403,19.233,0.127
			c0.043-0.042,0.085-0.084,0.127-0.127c2.587-3.384,3.866-7.589,3.6-11.84v-20h6.48c4.242,0.298,8.476-0.677,12.16-2.8
			c2.877-2.141,4.425-5.63,4.08-9.2C339.301,228.744,337.319,224.811,333.76,222.901z M289.36,220.581h-45.84l45.84-61.92V220.581z"
			/>
	</g>
</g>
<g>
</g>
<g>
</g>
<g>
</g>
<g>
</g>
<g>
</g>
<g>
</g>
<g>
</g>
<g>
</g>
<g>
</g>
<g>
</g>
<g>
</g>
<g>
</g>
<g>
</g>
<g>
</g>
<g>
</g>
</svg>
