<?xml version="1.0" encoding="iso-8859-1"?>
<!-- Generator: Adobe Illustrator 19.0.0, SVG Export Plug-In . SVG Version: 6.00 Build 0)  -->
<svg version="1.1" id="Capa_1" xmlns="http://www.w3.org/2000/svg" xmlns:xlink="http://www.w3.org/1999/xlink" x="0px" y="0px"
	 viewBox="0 0 329.2 329.2" style="enable-background:new 0 0 329.2 329.2;" xml:space="preserve">
<g>
	<g>
		<path d="M320.2,278L259,216.8c-5.6-5.6-13.6-8.8-21.2-8.8c-2.8,0-6,0.4-8.8,1.6L207.4,188c16.8-21.2,24.8-46.4,24.8-72
			c0-29.6-11.2-59.6-34-82c-22.8-22.8-52.4-34-82-34c-29.6,0-59.6,11.2-82,34c-22.8,22.8-34,52.4-34,82c0,29.6,11.2,59.6,34,82
			c22.8,22.8,52.4,34.4,82.4,34.4c25.2,0,50.8-8.4,71.6-24.8l21.6,21.6c-0.8,2.8-1.6,5.6-1.6,8.8c0,7.6,2.8,15.2,8.8,20.8l61.2,61.6
			c5.6,5.6,13.2,8.8,20.8,8.8s15.2-2.8,21.2-8.8c5.6-5.6,8.8-13.6,8.8-21.2C329,291.6,326.2,284,320.2,278z M181.8,181.2
			c-18,18-41.6,27.2-65.2,27.2c-23.6,0-47.2-9.2-65.2-27.2S24.2,139.6,24.2,116s9.2-47.2,27.2-65.2S93,23.6,116.6,23.6
			c23.6,0,47.2,9.2,65.2,27.2s26.8,41.6,26.8,65.2C208.6,139.6,199.8,163.2,181.8,181.2z M303.4,303.2c-1.2,1.2-2.4,1.6-4,1.6
			c-1.6,0-2.8-0.4-4-1.6L233.8,242c-1.2-1.2-1.6-2.4-1.6-4c0-1.6,0.4-2.8,1.6-4s2.4-1.6,4-1.6c1.6-0.4,3.2,0.4,4.4,1.6l61.2,61.2
			c1.2,1.2,1.6,2.4,1.6,4C305,300.8,304.6,302,303.4,303.2z"/>
	</g>
</g>
<g>
	<g>
		<path d="M189,110.4c0-9.2-2.4-17.6-6-25.2c-3.6-7.6-8.4-14.8-14.8-20.8C157.8,54,145,47.2,131,44.4c-13.6-2.8-28.4-1.6-42,3.6
			c-6,2.4-9.2,9.2-6.8,15.6c2.4,6,9.2,9.2,15.6,6.8C107,66.8,117,66,126.2,68c9.2,2,18,6.4,24.8,13.6c4,4,7.6,8.8,10,14
			c2.4,5.2,4,10.8,4.4,16.8c0.4,6.4,6.4,11.6,12.8,10.8C184.6,122.8,189.8,116.8,189,110.4z"/>
	</g>
</g>
<g>
</g>
<g>
</g>
<g>
</g>
<g>
</g>
<g>
</g>
<g>
</g>
<g>
</g>
<g>
</g>
<g>
</g>
<g>
</g>
<g>
</g>
<g>
</g>
<g>
</g>
<g>
</g>
<g>
</g>
</svg>
