<?xml version="1.0" encoding="iso-8859-1"?>
<!-- Generator: Adobe Illustrator 19.0.0, SVG Export Plug-In . SVG Version: 6.00 Build 0)  -->
<svg version="1.1" id="Capa_1" xmlns="http://www.w3.org/2000/svg" xmlns:xlink="http://www.w3.org/1999/xlink" x="0px" y="0px"
	 viewBox="0 0 340.893 340.893" style="enable-background:new 0 0 340.893 340.893;" xml:space="preserve">
<g>
	<g>
		<path d="M326.438,284.433c-1.059-0.49-2.213-0.743-3.38-0.74h-0.24h-31.36c25.76-40.64,20.24-141.28,18.56-164.16
			c-0.295-4.198-3.791-7.45-8-7.44h-240c-4.208-0.01-7.705,3.242-8,7.44c0,4.56-0.8,12.24-1.2,21.84
			c-25.481,4.655-43.738,27.229-42.96,53.12c-1.176,28.401,20.806,52.42,49.2,53.76c2.334,12.471,6.771,24.455,13.12,35.44h-31.28
			c-4.418-0.011-8.009,3.562-8.02,7.98c-0.003,1.167,0.25,2.321,0.74,3.38l19.28,41.2c1.312,2.836,4.155,4.648,7.28,4.64h243.36
			c3.125,0.008,5.968-1.804,7.28-4.64l19.52-41.2C332.194,291.043,330.448,286.288,326.438,284.433z M25.858,194.493
			c-0.684-16.838,10.109-32.006,26.24-36.88c-0.558,24.815,0.806,49.636,4.08,74.24C38.031,228.94,24.974,212.851,25.858,194.493z
			 M69.138,128.093l0.08-0.08h225.36c3.52,61.12-1.76,144.72-25.04,155.6H94.258C70.978,272.813,65.618,189.213,69.138,128.093z
			 M298.338,324.893H65.218l-11.76-25.2h256.8L298.338,324.893z"/>
	</g>
</g>
<g>
	<g>
		<path d="M249.138,69.213c0-5.84,5.36-11.68,11.2-17.92c7.04-7.44,15.04-16,13.92-27.04c-1.967-9.704-8.114-18.047-16.8-22.8
			c-3.623-2.541-8.62-1.663-11.16,1.96s-1.663,8.62,1.96,11.16c8,5.84,9.84,9.6,10,11.28c0,3.84-4.72,9.2-9.6,14.4
			c-7.6,8.08-16.08,17.04-15.68,29.52c1.057,10.203,6.228,19.535,14.32,25.84c3.247,3.049,8.351,2.887,11.4-0.36
			c3.049-3.247,2.887-8.351-0.36-11.4C253.559,80.285,250.279,75.066,249.138,69.213z"/>
	</g>
</g>
<g>
	<g>
		<path d="M181.938,69.213c0-5.84,5.36-11.68,11.2-17.92c7.04-7.44,15.04-16,13.92-27.04c-1.967-9.704-8.114-18.047-16.8-22.8
			c-3.623-2.541-8.62-1.663-11.16,1.96c-2.541,3.623-1.663,8.62,1.96,11.16c8,5.84,9.84,9.6,10,11.28c0,3.84-4.72,9.2-9.6,14.4
			c-7.44,8.08-15.92,17.04-15.52,29.52c1.057,10.203,6.228,19.535,14.32,25.84c3.247,3.004,8.316,2.807,11.32-0.44
			c3.004-3.247,2.807-8.316-0.44-11.32C186.359,80.285,183.079,75.066,181.938,69.213z"/>
	</g>
</g>
<g>
	<g>
		<path d="M114.898,69.213c0-5.84,5.36-11.68,11.2-17.92c7.04-7.44,15.04-16,13.92-27.04c-1.967-9.704-8.114-18.047-16.8-22.8
			c-3.908-2.062-8.747-0.565-10.809,3.343c-1.757,3.33-0.954,7.435,1.929,9.857c8,5.84,9.84,9.6,10,11.28c0,3.84-4.72,9.2-9.6,14.4
			c-7.76,8-16.4,16.96-15.84,29.44c1.057,10.203,6.228,19.535,14.32,25.84c3.247,3.004,8.316,2.807,11.32-0.44
			s2.807-8.316-0.44-11.32C119.319,80.285,116.039,75.066,114.898,69.213z"/>
	</g>
</g>
<g>
	<g>
		<path d="M280.898,186.413c0-4.418-3.582-8-8-8s-8,3.582-8,8c0,14.16-1.84,53.92-14.72,67.12c-3.093,3.155-3.042,8.22,0.113,11.313
			c1.507,1.477,3.537,2.299,5.647,2.287l-0.08,0.24c2.166,0.013,4.244-0.853,5.76-2.4
			C281.378,244.653,280.978,192.333,280.898,186.413z"/>
	</g>
</g>
<g>
</g>
<g>
</g>
<g>
</g>
<g>
</g>
<g>
</g>
<g>
</g>
<g>
</g>
<g>
</g>
<g>
</g>
<g>
</g>
<g>
</g>
<g>
</g>
<g>
</g>
<g>
</g>
<g>
</g>
</svg>
