<?xml version="1.0" encoding="iso-8859-1"?>
<!-- Generator: Adobe Illustrator 19.0.0, SVG Export Plug-In . SVG Version: 6.00 Build 0)  -->
<svg version="1.1" id="Capa_1" xmlns="http://www.w3.org/2000/svg" xmlns:xlink="http://www.w3.org/1999/xlink" x="0px" y="0px"
	 viewBox="0 0 410.754 410.754" style="enable-background:new 0 0 410.754 410.754;" xml:space="preserve">
<g>
	<g>
		<path d="M355.777,164.079c-2.56-19.36-38.32-30.64-80-34.88v-57.92h64.4c4.418,0,8-3.582,8-8s-3.582-8-8-8h-64.48v-8.64l56.96,8
			h0.8c4.418,0.309,8.251-3.022,8.56-7.44c0.309-4.418-3.022-8.251-7.44-8.56l-59.12-8v-12.64c0-4.418-3.582-8-8-8s-8,3.582-8,8
			v109.6c-8-0.4-15.36-0.64-23.04-0.64c-56,0-115.68,11.6-119.04,36.8c-0.037,0.639-0.037,1.281,0,1.92c0,0,0,0.4,0,0.64
			l28.64,226.8c0.525,4.008,3.958,6.994,8,6.96c26.946,7.232,54.741,10.811,82.64,10.64c28.004,0.42,55.936-2.943,83.04-10
			c4.042,0.034,7.475-2.952,8-6.96l28.32-226.8c0,0,0-0.4,0-0.64C355.987,165.568,355.907,164.819,355.777,164.079z
			 M312.177,386.159c-24.715,6.009-50.087,8.885-75.52,8.56c-25.433,0.325-50.805-2.551-75.52-8.56l-24.96-197.92
			c22.72,11.36,62.48,17.12,100.48,17.12s77.84-5.36,100.48-16.72L312.177,386.159z M236.657,189.359
			c-67.12,0-102.08-16-103.2-23.04v-0.56c0.48-6.96,35.6-22.88,103.36-22.88c8,0,16,0,23.04,0.64v12.8c0,4.418,3.582,8,8,8
			s8-3.582,8-8v-11.44c42.16,4.48,64,15.44,64,20.88l0.08,0.56C338.817,173.359,303.777,189.359,236.657,189.359z"/>
	</g>
</g>
<g>
	<g>
		<path d="M236.657,8.399c-4.418,0-8,3.582-8,8v90.24c0,4.418,3.582,8,8,8s8-3.582,8-8v-90.24
			C244.657,11.981,241.075,8.399,236.657,8.399z"/>
	</g>
</g>
<g>
	<g>
		<path d="M209.617,9.999c-4.418,0-8,3.582-8,8v1.52L63.937,0.079c-4.418-0.619-8.501,2.462-9.12,6.88
			c-0.619,4.418,2.462,8.501,6.88,9.12l139.92,19.68v19.68h-137.2c-4.418,0-8,3.582-8,8s3.582,8,8,8h137.2v15.76
			c0,4.418,3.582,8,8,8s8-3.582,8-8v-69.2C217.617,13.581,214.035,9.999,209.617,9.999z"/>
	</g>
</g>
<g>
	<g>
		<path d="M236.657,247.919c-27.022,0.044-48.916,21.938-48.96,48.96c0,27.04,21.92,48.96,48.96,48.96s48.96-21.92,48.96-48.96
			C285.617,269.839,263.696,247.919,236.657,247.919z M236.737,329.839c-18.203,0-32.96-14.757-32.96-32.96
			c0-18.203,14.757-32.96,32.96-32.96c0,0,0,0,0,0c18.091,0.175,32.677,14.868,32.72,32.96h0.24
			C269.697,315.082,254.94,329.839,236.737,329.839z"/>
	</g>
</g>
<g>
</g>
<g>
</g>
<g>
</g>
<g>
</g>
<g>
</g>
<g>
</g>
<g>
</g>
<g>
</g>
<g>
</g>
<g>
</g>
<g>
</g>
<g>
</g>
<g>
</g>
<g>
</g>
<g>
</g>
</svg>
