<?xml version="1.0" encoding="iso-8859-1"?>
<!-- Generator: Adobe Illustrator 19.0.0, SVG Export Plug-In . SVG Version: 6.00 Build 0)  -->
<svg version="1.1" id="Capa_1" xmlns="http://www.w3.org/2000/svg" xmlns:xlink="http://www.w3.org/1999/xlink" x="0px" y="0px"
	 viewBox="0 0 372.434 372.434" style="enable-background:new 0 0 372.434 372.434;" xml:space="preserve">
<g>
	<g>
		<path d="M189.72,0.034C88.1-1.91,4.144,78.894,2.2,180.514c0,0.64,0,1.28,0,2c0,0.72,0,0.4,0,0.64c0,1.76,0,3.52,0,5.28
			c0,101.62,82.38,184,184,184s184-82.38,184-184c0,0,0-0.48,0-0.64v-0.24C372.144,85.934,291.34,1.978,189.72,0.034z
			 M186.2,356.514c-92.784,0-168-75.216-168-168c0-2.64,0-5.28,0-8c1.21-3.227,4.806-4.862,8.033-3.652
			c2.371,0.889,3.969,3.122,4.047,5.652v30c0.005,12.283,9.966,22.236,22.249,22.231c12.276-0.005,22.226-9.955,22.231-22.231
			v-52.88c0.003-3.446,2.798-6.238,6.245-6.235c3.443,0.003,6.233,2.793,6.235,6.235v35.76c0.005,12.283,9.966,22.236,22.249,22.231
			c12.276-0.005,22.226-9.955,22.231-22.231v-20.16c0-3.446,2.794-6.24,6.24-6.24c3.109,0.019,5.717,2.352,6.08,5.44
			c-8.398,22.803,3.281,48.097,26.084,56.494c22.804,8.397,48.097-3.281,56.494-26.084c0.379-1.03,0.72-2.074,1.021-3.13
			c11.657,3.579,24.009-2.97,27.588-14.628c0.654-2.129,0.981-4.345,0.972-6.573v-29.84c0-3.446,2.794-6.24,6.24-6.24
			c3.446,0,6.24,2.794,6.24,6.24v52.64c0,12.283,9.957,22.24,22.24,22.24s22.24-9.957,22.24-22.24v-35.76
			c0-3.446,2.794-6.24,6.24-6.24c3.446,0,6.24,2.794,6.24,6.24v20.16c0,12.283,9.957,22.24,22.24,22.24
			c1.616-0.009,3.226-0.197,4.8-0.56C342.162,293.366,270.827,356.405,186.2,356.514z M158.2,188.514c0-15.464,12.536-28,28-28
			s28,12.536,28,28c0,15.464-12.536,28-28,28S158.2,203.978,158.2,188.514z M347.96,193.954c-3.446,0-6.24-2.794-6.24-6.24v-20.16
			c0-12.283-9.957-22.24-22.24-22.24s-22.24,9.957-22.24,22.24v35.76c0,3.446-2.794,6.24-6.24,6.24c-3.446,0-6.24-2.794-6.24-6.24
			v-52.64c0-12.283-9.957-22.24-22.24-22.24s-22.24,9.957-22.24,22.24v29.84c0,3.446-2.794,6.24-6.24,6.24
			c-1.456-0.046-2.847-0.614-3.92-1.6c-1.928-24.18-23.092-42.218-47.271-40.291c-11.189,0.892-21.612,6.034-29.128,14.371
			c-8.864-8.439-22.891-8.094-31.33,0.769c-3.911,4.108-6.098,9.559-6.11,15.231v20.16c-0.003,3.446-2.798,6.238-6.245,6.235
			c-3.443-0.003-6.233-2.793-6.235-6.235v-35.76c-0.005-12.283-9.966-22.236-22.249-22.231
			c-12.276,0.005-22.226,9.955-22.231,22.231v52.88c-0.003,3.446-2.798,6.238-6.245,6.235c-3.443-0.003-6.233-2.793-6.235-6.235
			v-29.92c0-12.283-9.957-22.24-22.24-22.24c-1.251-0.107-2.509-0.107-3.76,0C37.185,69.021,124.474,8.231,215.807,24.576
			c79.326,14.196,137.398,82.719,138.393,163.298C354.113,191.258,351.345,193.955,347.96,193.954z"/>
	</g>
</g>
<g>
	<g>
		<path d="M108.28,74.194c-12.725,0-23.04,10.315-23.04,23.04c0,12.725,10.315,23.04,23.04,23.04c12.725,0,23.04-10.315,23.04-23.04
			C131.32,84.51,121.005,74.194,108.28,74.194z M115.32,97.234c-0.044,3.857-3.183,6.96-7.04,6.96c-3.888,0-7.04-3.152-7.04-7.04
			c0-3.888,3.152-7.04,7.04-7.04c3.888,0,7.04,3.152,7.04,7.04C115.32,97.181,115.32,97.208,115.32,97.234z"/>
	</g>
</g>
<g>
	<g>
		<path d="M203.082,43.392c-0.081,0-0.162,0.001-0.242,0.002c-12.723,0.177-22.894,10.634-22.718,23.358
			c0.177,12.723,10.634,22.894,23.358,22.718c12.629-0.175,22.762-10.486,22.72-23.116C226.157,53.63,215.807,43.349,203.082,43.392
			z M209.88,66.434c-0.044,3.857-3.183,6.96-7.04,6.96c-3.888,0-7.04-3.152-7.04-7.04c0-3.888,3.152-7.04,7.04-7.04
			c3.888,0,7.04,3.152,7.04,7.04C209.88,66.381,209.88,66.408,209.88,66.434z"/>
	</g>
</g>
<g>
	<g>
		<path d="M266.68,63.714c-12.725,0-23.04,10.315-23.04,23.04c0,12.725,10.315,23.04,23.04,23.04s23.04-10.315,23.04-23.04
			C289.72,74.03,279.405,63.714,266.68,63.714z M273.72,86.754c-0.044,3.857-3.183,6.96-7.04,6.96c-3.888,0-7.04-3.152-7.04-7.04
			c0-3.888,3.152-7.04,7.04-7.04s7.04,3.152,7.04,7.04C273.72,86.701,273.72,86.728,273.72,86.754z"/>
	</g>
</g>
<g>
	<g>
		<circle cx="182.68" cy="126.594" r="10.08"/>
	</g>
</g>
<g>
	<g>
		<circle cx="316.2" cy="126.594" r="10.08"/>
	</g>
</g>
<g>
	<g>
		<circle cx="146.2" cy="51.394" r="10.08"/>
	</g>
</g>
<g>
	<g>
		<circle cx="57.16" cy="120.754" r="10.08"/>
	</g>
</g>
<g>
</g>
<g>
</g>
<g>
</g>
<g>
</g>
<g>
</g>
<g>
</g>
<g>
</g>
<g>
</g>
<g>
</g>
<g>
</g>
<g>
</g>
<g>
</g>
<g>
</g>
<g>
</g>
<g>
</g>
</svg>
