<?xml version="1.0" encoding="iso-8859-1"?>
<!-- Generator: Adobe Illustrator 19.0.0, SVG Export Plug-In . SVG Version: 6.00 Build 0)  -->
<svg version="1.1" id="Capa_1" xmlns="http://www.w3.org/2000/svg" xmlns:xlink="http://www.w3.org/1999/xlink" x="0px" y="0px"
	 viewBox="0 0 440.772 440.772" style="enable-background:new 0 0 440.772 440.772;" xml:space="preserve">
<g>
	<g>
		<path d="M422.892,323.745c-0.005-0.011-0.01-0.022-0.016-0.032l-146.48-300.32c-4.453-9.107-15.411-12.926-24.56-8.56l-10.16,4.96
			l-4.48-9.36c-4.488-9.208-15.588-13.039-24.8-8.56l-186,90.56c-9.178,4.517-12.971,15.609-8.48,24.8l57.84,119.2l-16.88,6
			c-4.159,1.491-6.322,6.072-4.831,10.231c0.726,2.025,2.236,3.671,4.191,4.569l35.52,16l70.64,144.24
			c4.487,9.162,15.528,12.986,24.72,8.56l10.16-4.96l4.56,9.36c4.484,9.072,15.409,12.879,24.56,8.56l185.92-90.56
			C423.502,343.984,427.341,332.931,422.892,323.745z M219.196,16.273c1.26-0.575,2.749-0.043,3.36,1.2l25.68,52.72l-41.28,17.84
			l-25.52-53.28L219.196,16.273z M117.196,144.193l33.92-14.64l20.4,42.32l-34.08,14.72L117.196,144.193z M137.436,224.513
			l-13.04-4.08c-1.612-0.526-3.348-0.526-4.96,0l-28.4,10.08l-2.64-5.44l41.36-17.84L137.436,224.513z M178.156,186.353l13.84,28.64
			l-8-5.04c-2.725-1.866-6.315-1.866-9.04,0l-19.44,14.72l-11.44-24L178.156,186.353z M186.156,165.633l-20.4-42.32l33.68-14.88
			l20.4,42.24L186.156,165.633z M226.796,165.633l24.8,51.36l-22-12.56c-3.834-2.196-8.722-0.868-10.918,2.966
			c-0.014,0.025-0.028,0.049-0.042,0.074l-6.24,11.6l-19.2-39.12L226.796,165.633z M241.516,159.313l41.52-17.92l30.48,62.56
			l-26.88-6.4c-2.659-0.65-5.465,0.104-7.44,2l-12.4,12L241.516,159.313z M234.556,144.913l-20.4-42.24l41.36-18.24l20.88,42.32
			L234.556,144.913z M167.116,41.713l25.44,52.56l-33.68,14.48l-24.64-51.04L167.116,41.713z M119.836,64.753l24,50.4l-33.84,14.64
			l-23.44-48.96L119.836,64.753z M32.236,110.273c-0.587-1.239-0.093-2.721,1.12-3.36l39.04-19.04l23.12,48l-41.92,18.08
			L32.236,110.273z M60.396,168.593l41.76-18l20.24,42.32l-41.12,17.92L60.396,168.593z M181.916,411.633
			c-1.239,0.587-2.721,0.093-3.36-1.12l-72-147.2c-0.793-1.689-2.151-3.047-3.84-3.84l-20-9.04l39.52-14l28.32,8.4
			c0.743,0.105,1.497,0.105,2.24,0h0.72h1.52c0.464-0.093,0.919-0.227,1.36-0.4c0.252-0.171,0.492-0.358,0.72-0.56h0.64l22.64-17.52
			l26.88,16.8c0.816,0.473,1.71,0.798,2.64,0.96h1.6l0.88,0.32h1.12h0.8h0.72l0.64-0.48l1.28-0.96c0.386-0.365,0.734-0.767,1.04-1.2
			c0.201-0.201,0.388-0.414,0.56-0.64l9.84-18.96l26.32,14.88c3.088,1.759,6.965,1.27,9.52-1.2l22.72-22l35.36,8.48l46.4,95.28
			c0.625,1.219,0.143,2.713-1.076,3.338c-0.015,0.007-0.029,0.015-0.044,0.022L181.916,411.633z M408.636,332.433
			c-0.215,0.633-0.677,1.152-1.28,1.44l-186,90.72c-1.26,0.575-2.749,0.043-3.36-1.2l-4.56-9.36l161.44-78.64
			c9.162-4.487,12.986-15.528,8.56-24.72l-134.72-276.48l10.16-4.96c1.219-0.625,2.713-0.143,3.338,1.076
			c0.007,0.015,0.015,0.029,0.022,0.044l146.24,300.24C408.764,331.163,408.822,331.822,408.636,332.433z"/>
	</g>
</g>
<g>
	<g>
		<path d="M191.87,357.874c-0.061-0.136-0.126-0.269-0.194-0.401l-35.28-71.68c-1.944-3.976-6.744-5.624-10.72-3.68
			c-3.977,1.944-5.624,6.744-3.68,10.72l35.28,71.6c1.811,4.03,6.546,5.829,10.576,4.018
			C191.882,366.639,193.681,361.904,191.87,357.874z"/>
	</g>
</g>
<g>
</g>
<g>
</g>
<g>
</g>
<g>
</g>
<g>
</g>
<g>
</g>
<g>
</g>
<g>
</g>
<g>
</g>
<g>
</g>
<g>
</g>
<g>
</g>
<g>
</g>
<g>
</g>
<g>
</g>
</svg>
