<?xml version="1.0" encoding="iso-8859-1"?>
<!-- Generator: Adobe Illustrator 19.0.0, SVG Export Plug-In . SVG Version: 6.00 Build 0)  -->
<svg version="1.1" id="Capa_1" xmlns="http://www.w3.org/2000/svg" xmlns:xlink="http://www.w3.org/1999/xlink" x="0px" y="0px"
	 viewBox="0 0 407.57 407.57" style="enable-background:new 0 0 407.57 407.57;" xml:space="preserve">
<g>
	<g>
		<circle cx="64.469" cy="189.452" r="10.08"/>
	</g>
</g>
<g>
	<g>
		<circle cx="192.549" cy="120.972" r="10.08"/>
	</g>
</g>
<g>
	<g>
		<circle cx="282.789" cy="194.092" r="10.08"/>
	</g>
</g>
<g>
	<g>
		<circle cx="302.949" cy="138.492" r="10.08"/>
	</g>
</g>
<g>
	<g>
		<circle cx="187.509" cy="184.012" r="10.08"/>
	</g>
</g>
<g>
	<g>
		<circle cx="123.429" cy="143.532" r="10.08"/>
	</g>
</g>
<g>
	<g>
		<path d="M384.789,221.132h0.16c4.941-9.944,7.514-20.896,7.52-32c0-61.68-84.56-112.16-188.56-112.16s-188.64,50.48-188.64,112.48
			c0.006,11.104,2.579,22.056,7.52,32c-16.525,4.561-26.223,21.655-21.662,38.18c3.689,13.366,15.796,22.664,29.662,22.78h6.32v9.28
			c-1.958,19.43,12.206,36.769,31.636,38.727c2.382,0.24,4.782,0.238,7.164-0.007h256c19.44,1.864,36.71-12.383,38.574-31.823
			c0.22-2.294,0.215-4.604-0.014-6.897v-9.6h6.32c17.142-0.143,30.923-14.156,30.78-31.298
			C407.453,236.929,398.155,224.822,384.789,221.132z M203.909,92.972c95.2,0,172.56,43.28,172.56,96.48
			c-0.144,10.713-3.245,21.178-8.96,30.24h-327.2c-5.758-9.132-8.86-19.685-8.96-30.48
			C31.269,136.252,108.709,92.972,203.909,92.972z M173.669,235.692l-31.52,32.8l-17.04,17.6l-43.2-50.4H173.669z M45.669,265.852
			h-14.64c-8.328-0.607-14.588-7.851-13.981-16.179c0.545-7.484,6.497-13.435,13.981-13.981h29.84l25.92,30.16H45.669z
			 M337.976,314.391c-2.009,0.318-4.055,0.325-6.067,0.021h-256c-22.48,0-22.48-16.88-22.48-22.48v-9.84h47.2l18.08,21.04
			c1.465,1.715,3.586,2.732,5.84,2.8c2.166,0.013,4.244-0.853,5.76-2.4l20.8-21.44h203.36v9.6
			C356.182,302.515,348.798,312.677,337.976,314.391z M390.77,251.871c-0.545,7.484-6.497,13.435-13.981,13.981h-210.08l29.2-30.16
			h180.88C385.117,236.299,391.377,243.543,390.77,251.871z"/>
	</g>
</g>
<g>
</g>
<g>
</g>
<g>
</g>
<g>
</g>
<g>
</g>
<g>
</g>
<g>
</g>
<g>
</g>
<g>
</g>
<g>
</g>
<g>
</g>
<g>
</g>
<g>
</g>
<g>
</g>
<g>
</g>
</svg>
