<?xml version="1.0" encoding="iso-8859-1"?>
<!-- Generator: Adobe Illustrator 19.0.0, SVG Export Plug-In . SVG Version: 6.00 Build 0)  -->
<svg version="1.1" id="Capa_1" xmlns="http://www.w3.org/2000/svg" xmlns:xlink="http://www.w3.org/1999/xlink" x="0px" y="0px"
	 viewBox="0 0 382.4 382.4" style="enable-background:new 0 0 382.4 382.4;" xml:space="preserve">
<g>
	<g>
		<path d="M284.4,242.4h-11.2c-11.2,0-20.4,9.2-20.4,20.4v4.8c0,11.2,9.2,20.4,20.4,20.4h11.2c11.2,0,20.4-9.2,20.4-20.4v-4.8
			C304.8,251.6,295.6,242.4,284.4,242.4z M292,267.6c0,4-3.6,7.6-7.6,7.6h-11.2c-4,0-7.6-3.6-7.6-7.6v-4.8c0-4,3.6-7.6,7.6-7.6h11.2
			c4,0,7.6,3.6,7.6,7.6V267.6z"/>
	</g>
</g>
<g>
	<g>
		<path d="M225.2,242.4H214c-11.2,0-20.4,9.2-20.4,20.4v4.8c0,11.2,8.8,20.4,20.4,20.4h11.2c11.2,0,20.4-9.2,20.4-20.4v-4.8
			C245.6,251.6,236.4,242.4,225.2,242.4z M232.8,267.6c0,4-3.6,7.6-7.6,7.6H214c-4,0-7.6-3.6-7.6-7.6v-4.8c0-4,3.6-7.6,7.6-7.6h11.2
			c4,0,7.6,3.6,7.6,7.6V267.6z"/>
	</g>
</g>
<g>
	<g>
		<path d="M357.6,71.2H70c-13.6,0-24.8,11.2-24.8,24.8v16H24.8C11.2,112,0,123.2,0,136.8v16.8v50v82.8c0,13.6,11.2,24.8,24.8,24.8
			h287.6c13.6,0,24.8-11.2,24.8-24.8v-16h20.4c13.6,0,24.8-11.2,24.8-24.8V96C382.4,82,371.6,71.2,357.6,71.2z M12.8,136.8
			c0-6.8,5.6-12,12-12h26.8H312c6.8,0,12,5.6,12,12v16.8H12.8V136.8z M324.4,264.4v22.4c0,6.8-5.6,12-12,12H24.8
			c-6.8,0-12-5.6-12-12v-83.2h311.6V264.4z M324.4,190.8H12.8v-24.4h311.6V190.8z M369.6,246c0,6.8-5.6,12-12,12h-20.4v-54.4v-50
			v-16.8c0-13.6-11.2-24.8-24.8-24.8H58V96c0-6.8,5.6-12,12-12h287.6c6.8,0,12,5.6,12,12V246z"/>
	</g>
</g>
<g>
</g>
<g>
</g>
<g>
</g>
<g>
</g>
<g>
</g>
<g>
</g>
<g>
</g>
<g>
</g>
<g>
</g>
<g>
</g>
<g>
</g>
<g>
</g>
<g>
</g>
<g>
</g>
<g>
</g>
</svg>
