<?xml version="1.0" encoding="iso-8859-1"?>
<!-- Generator: Adobe Illustrator 19.0.0, SVG Export Plug-In . SVG Version: 6.00 Build 0)  -->
<svg version="1.1" id="Capa_1" xmlns="http://www.w3.org/2000/svg" xmlns:xlink="http://www.w3.org/1999/xlink" x="0px" y="0px"
	 viewBox="0 0 450.685 450.685" style="enable-background:new 0 0 450.685 450.685;" xml:space="preserve">
<g>
	<g>
		<path d="M154.912,209.5c1.17,0.935,2.232,1.998,3.168,3.168c2.765,3.446,7.8,3.999,11.246,1.234
			c1.902-1.526,3.004-3.836,2.994-6.274v-60.4c0-4.418-3.581-8-8-8c-0.027,0-0.054,0-0.08,0H119.6c1.852-4.407,2.804-9.14,2.8-13.92
			c-0.941-20.037-17.947-35.517-37.984-34.576c-18.719,0.879-33.697,15.856-34.576,34.576c-0.004,4.78,0.948,9.513,2.8,13.92H8
			c-4.418,0-8,3.582-8,8v60.48c-0.019,4.418,3.548,8.015,7.966,8.034c2.438,0.01,4.748-1.092,6.274-2.994
			c6.981-8.787,19.763-10.251,28.55-3.27s10.251,19.763,3.27,28.55s-19.763,10.251-28.55,3.27c-1.211-0.962-2.308-2.059-3.27-3.27
			c-2.765-3.446-7.8-3.999-11.246-1.234C1.092,238.32-0.01,240.63,0,243.068v60.48c0,4.418,3.582,8,8,8h43.92
			c-6.691,18.91,3.215,39.664,22.125,46.355c18.91,6.691,39.664-3.215,46.355-22.125c2.773-7.838,2.773-16.391,0-24.229h43.92
			c4.418,0,8-3.582,8-8v-60.56c0.019-4.418-3.548-8.015-7.966-8.034c-2.438-0.01-4.748,1.092-6.274,2.994
			c-6.981,8.73-19.717,10.149-28.448,3.168c-8.73-6.981-10.149-19.717-3.168-28.448C133.445,203.938,146.182,202.52,154.912,209.5z
			 M138.912,261.628c1.135,0.053,2.273,0.053,3.408,0c4.781,0.011,9.515-0.941,13.92-2.8v36.64H106
			c-4.418,0.018-7.985,3.615-7.966,8.033c0.009,2.122,0.86,4.153,2.366,5.647c7.984,7.887,8.063,20.752,0.176,28.736
			c-7.887,7.984-20.752,8.063-28.736,0.176c-7.984-7.887-8.063-20.752-0.176-28.736c0.058-0.059,0.117-0.118,0.176-0.176
			c3.137-3.111,3.158-8.177,0.047-11.314c-1.494-1.506-3.525-2.357-5.646-2.366H16v-36.64c4.406,1.857,9.139,2.809,13.92,2.8
			c20.037-0.941,35.517-17.947,34.576-37.984c-0.879-18.719-15.856-33.697-34.576-34.576c-4.781-0.009-9.514,0.944-13.92,2.8v-36.64
			h52.48c4.417-0.112,7.906-3.784,7.794-8.2c-0.06-2.356-1.155-4.566-2.994-6.04c-8.787-6.981-10.251-19.763-3.27-28.55
			s19.763-10.251,28.55-3.27c8.787,6.981,10.251,19.763,3.27,28.55c-0.962,1.211-2.059,2.308-3.27,3.27
			c-3.446,2.765-3.999,7.8-1.234,11.246c1.526,1.902,3.836,3.004,6.274,2.994h52.48l0.16,36.64c-4.405-1.859-9.139-2.811-13.92-2.8
			c-20.037-0.941-37.043,14.539-37.984,34.576C103.395,243.681,118.875,260.687,138.912,261.628z"/>
	</g>
</g>
<g>
	<g>
		<g>
			<path d="M426.469,190.188c-3.902-1.38-8.01-2.084-12.149-2.08c-4.116-0.001-8.201,0.703-12.08,2.08v-43.92c0-4.418-3.582-8-8-8
				h-60.48c-4.418,0.035-7.971,3.646-7.936,8.064c0.019,2.36,1.079,4.591,2.896,6.096c8.804,6.959,10.301,19.737,3.342,28.542
				c-6.959,8.804-19.737,10.301-28.542,3.342s-10.301-19.737-3.342-28.542c0.98-1.24,2.102-2.362,3.342-3.342
				c3.446-2.765,3.999-7.8,1.234-11.246c-1.526-1.902-3.836-3.004-6.274-2.994H238c-4.418,0-8,3.582-8,8v44.64
				c-4.406-1.856-9.139-2.809-13.92-2.8c-20.037,0.941-35.517,17.947-34.576,37.984c0.879,18.719,15.856,33.696,34.576,34.576
				c4.781,0.006,9.514-0.946,13.92-2.8v44.64c0,4.418,3.582,8,8,8h60.64c4.418-0.001,7.999-3.584,7.998-8.002
				c-0.001-2.823-1.49-5.437-3.918-6.878c-8.444-7.392-9.297-20.23-1.905-28.674c7.392-8.444,20.23-9.297,28.674-1.905
				c8.444,7.392,9.297,20.229,1.905,28.674c-0.812,0.928-1.707,1.78-2.674,2.545c-3.446,2.765-3.999,7.8-1.234,11.246
				c1.526,1.902,3.836,3.004,6.274,2.994h60.48c4.418,0,8-3.582,8-8v-43.76c18.91,6.691,39.664-3.215,46.355-22.125
				S445.38,196.879,426.469,190.188z M428.447,238.989c-3.771,3.767-8.877,5.894-14.207,5.92l0.08-0.24
				c-5.411,0.013-10.6-2.149-14.4-6c-3.111-3.137-8.177-3.158-11.314-0.047c-1.506,1.494-2.357,3.525-2.366,5.646v50.24h-36.72
				c1.901-4.451,2.88-9.24,2.88-14.08c-0.941-20.037-17.947-35.517-37.984-34.576c-18.719,0.879-33.697,15.856-34.576,34.576
				c-0.004,4.78,0.948,9.513,2.8,13.92H246v-52.24c0.019-4.418-3.548-8.015-7.966-8.034c-2.438-0.01-4.748,1.092-6.274,2.994
				c-6.981,8.787-19.763,10.251-28.55,3.27c-8.787-6.981-10.251-19.763-3.27-28.55s19.763-10.251,28.55-3.27
				c1.211,0.962,2.308,2.059,3.27,3.27c2.765,3.446,7.8,3.999,11.246,1.234c1.902-1.526,3.004-3.836,2.994-6.274v-52.48h36.64
				c-1.911,4.476-2.891,9.293-2.88,14.16c-0.941,20.037,14.539,37.043,34.576,37.984s37.043-14.539,37.984-34.576
				c0.053-1.135,0.053-2.273,0-3.408c0.004-4.78-0.948-9.513-2.8-13.92h36.64v50.24c0.019,4.418,3.615,7.985,8.034,7.966
				c2.121-0.009,4.153-0.86,5.646-2.366c7.909-7.9,20.724-7.892,28.624,0.017C436.363,218.274,436.356,231.089,428.447,238.989z"/>
			<polygon points="414.32,188.108 414.32,188.108 414.32,188.108 			"/>
		</g>
	</g>
</g>
<g>
</g>
<g>
</g>
<g>
</g>
<g>
</g>
<g>
</g>
<g>
</g>
<g>
</g>
<g>
</g>
<g>
</g>
<g>
</g>
<g>
</g>
<g>
</g>
<g>
</g>
<g>
</g>
<g>
</g>
</svg>
