<?xml version="1.0" encoding="iso-8859-1"?>
<!-- Generator: Adobe Illustrator 19.0.0, SVG Export Plug-In . SVG Version: 6.00 Build 0)  -->
<svg version="1.1" id="Capa_1" xmlns="http://www.w3.org/2000/svg" xmlns:xlink="http://www.w3.org/1999/xlink" x="0px" y="0px"
	 viewBox="0 0 437.189 437.189" style="enable-background:new 0 0 437.189 437.189;" xml:space="preserve">
<g>
	<g>
		<path d="M434.103,331.075c-2.684-13.131-6.157-26.087-10.4-38.8h0v-32c0-113.222-91.738-205.032-204.96-205.12
			c-113.129,0.088-204.828,91.752-204.96,204.88v32c-4.466,12.86-8.152,25.977-11.04,39.28c-3.12,12.96-5.52,29.12,4.16,40
			c7.04,7.28,17.76,10.72,35.84,10.72c13.396-0.245,26.759-1.394,40-3.44c64-8.8,136-10.88,136-10.88s72.48,2.16,136,10.88
			c44.32,6.16,64.64,4.08,75.2-7.52S437.303,344.115,434.103,331.075z M407.703,260.035v0.24v23.12c-5.6-1.52-11.36-2.96-17.12-4.32
			h-0.4c-18.613-4.533-37.653-8.24-57.12-11.12v-8c0-79.28-24-146.64-59.76-180.88C353.068,103.212,407.646,176.698,407.703,260.035
			z M383.703,318.835c-6.08,6.72-31.2,4.16-49.6,1.6c-54.16-7.52-114.8-9.2-115.28-9.2c-0.48,0-61.12,1.68-115.28,9.2
			c-18.4,2.56-43.52,5.12-49.6-1.6c-2.56-2.88-2.64-9.52,0-19.84l1.2-4.8c55.623-12.048,112.367-18.162,169.28-18.24
			c53.286-0.204,106.416,5.782,158.32,17.84l1.28,5.2c2.24,10.08,2.24,16.72-0.4,19.6L383.703,318.835z M218.743,71.155
			c54.24,0,98.32,84.72,98.32,188.96v5.44c-30.809-3.864-61.83-5.788-92.88-5.76c-34.772,0.014-69.508,2.232-104,6.64v-6.32
			C120.423,155.875,164.503,71.155,218.743,71.155z M29.783,260.035c0.119-83.298,54.68-156.728,134.4-180.88
			c-35.84,34.24-59.76,101.6-59.76,180.88v8.56c-25.13,3.61-50.047,8.578-74.64,14.88V260.035z M418.343,360.435L418.343,360.435
			c-8,8.56-36.72,5.76-61.12,2.4c-64-8.8-137.84-11.04-138.48-11.04s-74.56,2.24-138.48,11.04c-24,3.36-53.36,6.16-61.12-2.4
			c-3.52-3.92-3.68-12.24-0.48-25.36c5.2-21.28,8-30.56,9.12-34.48l9.68-2.56c-2.24,10.48-3.28,22.72,4.48,31.28
			c10.4,11.52,32,11.12,64,6.72c52.72-7.28,112.8-8.96,112.8-9.04s60.4,1.76,113.28,9.04c10.832,1.661,21.763,2.596,32.72,2.8
			c14.24,0,24.72-2.56,30.96-9.52c8-8.56,6.72-20.88,4.48-31.36l9.76,2.64c1.28,3.92,4,13.2,9.12,34.4
			C422.023,348.195,421.863,356.515,418.343,360.435z"/>
	</g>
</g>
<g>
	<g>
		<path d="M218.743,137.715c-44.8,0-80,22.32-80,50.8s35.12,50.8,80,50.8s80-22.32,80-50.8S263.543,137.715,218.743,137.715z
			 M218.743,223.235c-34.64,0-64-16-64-34.8c0-18.8,29.28-34.8,64-34.8c34.72,0,64,16,64,34.8
			C282.743,207.235,253.383,223.235,218.743,223.235z"/>
	</g>
</g>
<g>
</g>
<g>
</g>
<g>
</g>
<g>
</g>
<g>
</g>
<g>
</g>
<g>
</g>
<g>
</g>
<g>
</g>
<g>
</g>
<g>
</g>
<g>
</g>
<g>
</g>
<g>
</g>
<g>
</g>
</svg>
