<?xml version="1.0" encoding="iso-8859-1"?>
<!-- Generator: Adobe Illustrator 19.0.0, SVG Export Plug-In . SVG Version: 6.00 Build 0)  -->
<svg version="1.1" id="Capa_1" xmlns="http://www.w3.org/2000/svg" xmlns:xlink="http://www.w3.org/1999/xlink" x="0px" y="0px"
	 viewBox="0 0 410.344 410.344" style="enable-background:new 0 0 410.344 410.344;" xml:space="preserve">
<g>
	<g>
		<path d="M205.212,0C119.37,0.088,49.816,69.678,49.772,155.52c0,83.52,143.36,245.36,149.44,252.16
			c2.947,3.292,8.005,3.571,11.297,0.624c0.219-0.196,0.427-0.404,0.624-0.624c6.08-6.88,149.44-168.64,149.44-252.16
			C360.528,69.709,291.022,0.132,205.212,0z M205.212,390.16c-27.36-32-139.44-166.32-139.44-234.72
			C65.772,78.429,128.201,16,205.212,16s139.44,62.429,139.44,139.44C344.652,223.84,232.572,358.32,205.212,390.16z"/>
	</g>
</g>
<g>
	<g>
		<path d="M208.012,78c-46.524,0.044-84.204,37.796-84.16,84.32c0.044,46.524,37.796,84.204,84.32,84.16
			c46.493-0.044,84.16-37.747,84.16-84.24C292.244,115.721,254.531,78.044,208.012,78z M208.012,230.56
			c-37.688,0-68.24-30.552-68.24-68.24s30.552-68.24,68.24-68.24s68.24,30.552,68.24,68.24
			C276.208,199.99,245.681,230.516,208.012,230.56z"/>
	</g>
</g>
<g>
</g>
<g>
</g>
<g>
</g>
<g>
</g>
<g>
</g>
<g>
</g>
<g>
</g>
<g>
</g>
<g>
</g>
<g>
</g>
<g>
</g>
<g>
</g>
<g>
</g>
<g>
</g>
<g>
</g>
</svg>
